<svg xmlns="http://www.w3.org/2000/svg" viewBox="0 0 448 448" width="28" height="28">
  <rect width="448" height="448" rx="48" fill="#f7df1e"/>
  <path fill="#000" d="M193.2 361.2l42.4-25.6c8.1 14.1 15.5 26 23.4 26 12.4 0 20.3-10.1 20.3-48.4V172h52.2v141.4c0 79.8-41.7 116.2-102.5 116.2-54.9 0-86.8-28.4-103.4-65.6l42.6-24.8c18.2 32.5 34.1 45.2 60.8 45.2 25.2 0 41.2-10.3 41.2-35.2zm143.2-194.4v23.6h-23.5v-23.6h-23.6v23.6h-23.5v23.6h23.5v23.5h-23.5v23.6h23.5v70.8h23.6v-70.8h23.5v-23.5h-23.5v-23.6h47.1v-23.6h-47.1z"/>
</svg>
